<svg xmlns="http://www.w3.org/2000/svg" viewBox="0 0 800 600" width="100%" height="100%">
  <defs>
    <radialGradient id="bg" cx="50%" cy="40%" r="70%">
      <stop offset="0%" stop-color="#1e1b4b" />
      <stop offset="50%" stop-color="#0f0e26" />
      <stop offset="100%" stop-color="#060511" />
    </radialGradient>
    <linearGradient id="gridGrad" x1="0" y1="0" x2="1" y2="1">
      <stop offset="0%" stop-color="#6366f1" />
      <stop offset="100%" stop-color="#3b82f6" />
    </linearGradient>
    <linearGradient id="neonX" x1="0" y1="0" x2="1" y2="1">
      <stop offset="0%" stop-color="#f43f5e" />
      <stop offset="100%" stop-color="#fb7185" />
    </linearGradient>
    <linearGradient id="neonO" x1="0" y1="0" x2="1" y2="1">
      <stop offset="0%" stop-color="#38bdf8" />
      <stop offset="100%" stop-color="#06b6d4" />
    </linearGradient>
    <filter id="glowX" x="-30%" y="-30%" width="160%" height="160%">
      <feDropShadow dx="0" dy="0" stdDeviation="14" flood-color="#f43f5e" flood-opacity="0.8" />
    </filter>
    <filter id="glowO" x="-30%" y="-30%" width="160%" height="160%">
      <feDropShadow dx="0" dy="0" stdDeviation="14" flood-color="#38bdf8" flood-opacity="0.8" />
    </filter>
  </defs>
  <rect width="800" height="600" fill="url(#bg)" />
  <circle cx="400" cy="300" r="280" fill="#6366f1" opacity="0.08" filter="blur(40px)" />
  <!-- Grid Lines -->
  <g stroke="url(#gridGrad)" stroke-width="12" stroke-linecap="round" opacity="0.85">
    <line x1="300" y1="120" x2="300" y2="480" />
    <line x1="500" y1="120" x2="500" y2="480" />
    <line x1="140" y1="240" x2="660" y2="240" />
    <line x1="140" y1="360" x2="660" y2="360" />
  </g>
  <!-- Glowing X in top-left -->
  <g filter="url(#glowX)" stroke="url(#neonX)" stroke-width="18" stroke-linecap="round">
    <line x1="180" y1="140" x2="260" y2="220" />
    <line x1="260" y1="140" x2="180" y2="220" />
  </g>
  <!-- Glowing O in center -->
  <circle cx="400" cy="300" r="48" fill="none" stroke="url(#neonO)" stroke-width="18" filter="url(#glowO)" />
  <!-- Glowing X in bottom-right -->
  <g filter="url(#glowX)" stroke="url(#neonX)" stroke-width="18" stroke-linecap="round">
    <line x1="540" y1="380" x2="620" y2="460" />
    <line x1="620" y1="380" x2="540" y2="460" />
  </g>
  <!-- Floating small O in top-right -->
  <circle cx="580" cy="180" r="38" fill="none" stroke="url(#neonO)" stroke-width="14" filter="url(#glowO)" opacity="0.7" />
  <!-- Text Label -->
  <text x="400" y="550" text-anchor="middle" font-family="system-ui, sans-serif" font-weight="900" font-size="32" fill="#ffffff" letter-spacing="4" opacity="0.95">TIC TAC TOE</text>
</svg>